<svg xmlns="http://www.w3.org/2000/svg" viewBox="0 0 64 64" role="img" aria-label="Hukum favicon">
	<defs>
		<linearGradient id="bg" x1="0" y1="0" x2="1" y2="1">
			<stop offset="0" stop-color="#1d6b47"/>
			<stop offset="1" stop-color="#0d3d29"/>
		</linearGradient>
		<linearGradient id="card" x1="0" y1="0" x2="0" y2="1">
			<stop offset="0" stop-color="#fffef6"/>
			<stop offset="1" stop-color="#efe9d7"/>
		</linearGradient>
		<linearGradient id="crown" x1="0" y1="0" x2="1" y2="1">
			<stop offset="0" stop-color="#f8d86f"/>
			<stop offset="1" stop-color="#d69d20"/>
		</linearGradient>
	</defs>

	<rect x="3" y="3" width="58" height="58" rx="14" fill="url(#bg)"/>

	<rect x="16" y="12" width="31" height="40" rx="6" fill="url(#card)" transform="rotate(-8 31.5 32)"/>
	<rect x="19" y="15" width="31" height="40" rx="6" fill="url(#card)"/>

	<path d="M35 22L37.8 26.9L43 27.8L39.2 31.6L40 36.8L35 34.4L30 36.8L30.8 31.6L27 27.8L32.2 26.9Z" fill="#c0283a"/>

	<path d="M23 42L28 38L32 43L36 38L41 42V46H23Z" fill="url(#crown)"/>
	<circle cx="28" cy="38" r="1.4" fill="#f6e7a8"/>
	<circle cx="32" cy="43" r="1.4" fill="#f6e7a8"/>
	<circle cx="36" cy="38" r="1.4" fill="#f6e7a8"/>

	<rect x="3" y="3" width="58" height="58" rx="14" fill="none" stroke="#000" stroke-opacity="0.2"/>
</svg>
